# xmcd
#
# Track frame offsets: 
#        150
#        11585
#        26155
#        43582
#        58242
#        78595
#        96060
#        115497
#        132777
#        151687
#        168760
#        182310
#        199704
#        217193
#        234195
#
# Disc length: 3350 seconds
#
# Revision: 3
# Processed by: cddbd v1.5.2PL0 Copyright (c) Steve Scherf et al.
# Submitted via: ExactAudioCopyFreeDBPlugin 1.0
#
DISCID=bd0d140f
DTITLE=3 Doors Down - Seventeen Days
DYEAR=2005
DGENRE=Post-Grunge
TTITLE0=Right Where I Belong
TTITLE1=It's Not Me
TTITLE2=Let Me Go
TTITLE3=Be Somebody
TTITLE4=Landing In London (Feat. Bob Seger)
TTITLE5=The Real Life
TTITLE6=Behind Those Eyes
TTITLE7=Never Will I Break
TTITLE8=Father's Son
TTITLE9=Love For Today
TTITLE10=My World
TTITLE11=Here By Me
TTITLE12=Here Without You (Acoustic)
TTITLE13=Away From The Sun (Acoustic)
TTITLE14=Let Me Go (Acoustic)
EXTD=Retail. I own. ;)
EXTT0=
EXTT1=
EXTT2=
EXTT3=
EXTT4=
EXTT5=
EXTT6=
EXTT7=
EXTT8=
EXTT9=
EXTT10=
EXTT11=
EXTT12=
EXTT13=
EXTT14=
PLAYORDER=
